<?xml version="1.0" encoding="UTF-8"?> <svg xmlns="http://www.w3.org/2000/svg" xmlns:xlink="http://www.w3.org/1999/xlink" version="1.1" width="601px" height="411px" viewBox="-0.5 -0.5 601 411"><defs><linearGradient x1="0%" y1="0%" x2="0%" y2="100%" id="mx-gradient-ffcd28-1-ffa500-1-s-0"><stop offset="0%" style="stop-color: rgb(255, 205, 40); stop-opacity: 1;"></stop><stop offset="100%" style="stop-color: rgb(255, 165, 0); stop-opacity: 1;"></stop></linearGradient><linearGradient x1="0%" y1="0%" x2="0%" y2="100%" id="mx-gradient-fff2cc-1-ffd966-1-s-0"><stop offset="0%" style="stop-color: rgb(255, 242, 204); stop-opacity: 1;"></stop><stop offset="100%" style="stop-color: rgb(255, 217, 102); stop-opacity: 1;"></stop></linearGradient></defs><g><rect x="260" y="0" width="120" height="60" fill="none" stroke="none"></rect><path d="M 260.84 -0.31 L 378.32 -1.8 L 377.43 61.56 L 263.23 61.45" fill="url(#mx-gradient-ffcd28-1-ffa500-1-s-0)" stroke="none"></path><path d="M 260 0 C 290.61 -1.63 314.36 5.44 380 0 M 260 0 C 308.31 1.53 353.96 3.36 380 0 M 380 0 C 379.61 20.54 383.25 41.13 380 60 M 380 0 C 379.18 15.61 380.03 30.17 380 60 M 380 60 C 343 61.76 302.74 58.74 260 60 M 380 60 C 354.25 60.19 327.76 60.85 260 60 M 260 60 C 258.61 50.37 257.43 34.79 260 0 M 260 60 C 259.52 45.78 259.46 30.46 260 0" fill="none" stroke="#d79b00" stroke-linejoin="round" stroke-linecap="round" stroke-miterlimit="10"></path><g transform="translate(-0.5 -0.5)"><switch><text x="320" y="34" fill="rgb(0, 0, 0)" font-family="Comic Sans MS" font-size="12px" text-anchor="middle">Federal Prometheus</text></switch></g><path d="M 320 60 L 319.81 59.64 L 311.11 65.18 L 301.88 69.73 L 293.14 75.2 L 283.92 79.76 L 274.65 84.23 L 265.73 89.35 L 256.03 93 L 247.26 98.42 L 237.85 102.62 L 229.21 108.28 L 220.5 113.79 L 210.59 117.07 L 201.78 122.39 L 192.94 127.67 L 183.89 132.56 L 174.41 136.63 L 165.62 142.01" fill="none" stroke="rgb(0, 0, 0)" stroke-linejoin="round" stroke-linecap="round" stroke-miterlimit="10"></path><path d="M 160.99 144.48 L 161 144.48 L 162.16 143.39 L 162.76 141.9 L 163.89 140.78 L 164.39 139.21 L 165.53 138.1 L 165.72 138.11 L 165.51 138.88 L 165.72 139.67 L 165.74 140.45 L 165.41 141.23 L 165.62 142.01 L 165.77 142.22 L 166.22 142.41 L 166.88 142.9 L 167.4 143.18 L 168.27 143.97 L 168.81 144.28 L 168.82 144.53 L 167.24 144.22 L 165.67 144.05 L 164.12 144.67 L 162.55 144.46 L 160.99 144.48 Z Z" fill="rgb(0, 0, 0)" stroke="rgb(0, 0, 0)" stroke-linejoin="round" stroke-linecap="round" stroke-miterlimit="10"></path><path d="M 320 60 L 319.64 59.29 L 329.28 64.8 L 338.2 68.87 L 347.61 73.94 L 356.74 78.43 L 365.83 82.86 L 374.81 87.05 L 384.09 91.85 L 393.16 96.24 L 402.65 101.45 L 412 106.4 L 420.64 109.91 L 429.98 114.83 L 438.99 119.1 L 448 123.35 L 457.6 128.79 L 467.21 134.24 L 475.67 137.4 L 485.25 142.8 L 494.3 147.15" fill="none" stroke="rgb(0, 0, 0)" stroke-linejoin="round" stroke-linecap="round" stroke-miterlimit="10"></path><path d="M 499 149.5 L 499 149.28 L 497.43 149.27 L 495.87 149.67 L 494.3 149.33 L 492.74 149.39 L 491.17 149.5 L 491.04 149.32 L 491.9 149.16 L 492.51 148.67 L 493.11 148.17 L 493.7 147.66 L 494.3 147.15 L 494.32 147.15 L 494.24 146.37 L 494.27 145.59 L 494.08 144.8 L 494.41 144.02 L 494.3 143.24 L 494.19 143.15 L 495.26 144.5 L 496.43 145.93 L 497.01 146.91 L 498.07 148.26 L 499 149.5 Z Z" fill="rgb(0, 0, 0)" stroke="rgb(0, 0, 0)" stroke-linejoin="round" stroke-linecap="round" stroke-miterlimit="10"></path><path d="M 101.26 144.39 L 218.21 142.58 L 219.72 206.87 L 101.89 203.61" fill="url(#mx-gradient-fff2cc-1-ffd966-1-s-0)" stroke="none"></path><path d="M 100 145 C 127.75 147.32 161.59 142.73 220 145 M 100 145 C 143.23 144.82 185.39 143.18 220 145 M 220 145 C 221.76 164.6 221.8 177.55 220 205 M 220 145 C 221.88 159.22 221.56 170.98 220 205 M 220 205 C 172.3 203.89 130.78 209.36 100 205 M 220 205 C 185.39 206.21 156.45 206.24 100 205 M 100 205 C 98.01 183.11 99.33 169.47 100 145 M 100 205 C 99.74 190.67 100.67 177.56 100 145" fill="none" stroke="#d6b656" stroke-linejoin="round" stroke-linecap="round" stroke-miterlimit="10"></path><g transform="translate(-0.5 -0.5)"><switch><text x="160" y="179" fill="rgb(0, 0, 0)" font-family="Comic Sans MS" font-size="12px" text-anchor="middle">Prometheus</text></switch></g><path d="M 191.12 186.13 C 191.12 186.13 191.12 186.13 191.12 186.13 M 191.12 186.13 C 191.12 186.13 191.12 186.13 191.12 186.13 M 192.17 191.02 C 193.71 190.21 193.76 187.63 196.11 186.49 M 192.17 191.02 C 192.72 190.46 194.43 189.36 196.11 186.49 M 192.57 196.66 C 193.06 192.99 199.33 190.28 201.1 186.85 M 192.57 196.66 C 194.69 195.55 196.18 192.45 201.1 186.85 M 192.31 203.06 C 195.4 193.3 205.06 192.46 206.74 186.45 M 192.31 203.06 C 197.01 197.71 200.37 196.43 206.74 186.45 M 192.7 208.7 C 195.77 203.59 202.6 196.98 211.73 186.81 M 192.7 208.7 C 199.39 200.99 203.87 195.2 211.73 186.81 M 192.44 215.1 C 203.43 203.67 207.32 190.53 216.71 187.17 M 192.44 215.1 C 198.71 206.62 203.33 202.75 216.71 187.17 M 198.08 214.7 C 205.5 204.31 214.69 195.22 221.7 187.53 M 198.08 214.7 C 205.63 205.58 216.04 195.71 221.7 187.53 M 203.07 215.06 C 212.04 205.25 218.2 195.06 227.34 187.14 M 203.07 215.06 C 212.08 207.99 217.58 196.03 227.34 187.14 M 208.06 215.42 C 215.8 205.8 224.98 196.66 231.67 188.25 M 208.06 215.42 C 216.93 204.51 225.12 194.68 231.67 188.25 M 213.7 215.03 C 222.11 209.85 223.33 202.04 231.41 194.65 M 213.7 215.03 C 218.39 208.39 222.64 204.53 231.41 194.65 M 218.69 215.39 C 220.2 209.98 229.74 209.54 231.81 200.3 M 218.69 215.39 C 222.77 209.77 227.82 204.44 231.81 200.3 M 224.33 215 C 224.33 212.39 226.1 210.64 231.55 206.69 M 224.33 215 C 225.27 212.24 229.11 210.4 231.55 206.69" fill="none" stroke="#f8cecc" stroke-width="0.5" stroke-linejoin="round" stroke-linecap="round" stroke-miterlimit="10"></path><path d="M 194.5 185 M 194.5 185 C 202.78 181.07 213.05 182.98 225.5 185 M 194.5 185 C 202.38 183.63 206.79 184.94 225.5 185 M 225.5 185 C 228.23 184.66 230.83 187.28 230 189.5 M 225.5 185 C 227.77 188.44 228.82 185.87 230 189.5 M 230 189.5 C 230.61 190.82 229.95 198.22 230 210.5 M 230 189.5 C 228.56 194.83 231.7 199.76 230 210.5 M 230 210.5 C 233.6 212.37 225.89 217.58 225.5 215 M 230 210.5 C 228.66 214.65 230.06 212.81 225.5 215 M 225.5 215 C 219.3 213.72 208.61 213.72 194.5 215 M 225.5 215 C 218.03 214.24 209.01 213.59 194.5 215 M 194.5 215 C 189.51 215.45 190.9 211.19 190 210.5 M 194.5 215 C 193.92 218.49 193.91 211.93 190 210.5 M 190 210.5 C 189.73 202.93 192.7 198.35 190 189.5 M 190 210.5 C 189.68 206.27 189.59 196.99 190 189.5 M 190 189.5 C 189.66 187.56 192.54 186.88 194.5 185 M 190 189.5 C 186.17 187.75 195.36 187.76 194.5 185" fill="none" stroke="#b85450" stroke-linejoin="round" stroke-linecap="round" stroke-miterlimit="10"></path><g transform="translate(-0.5 -0.5)"><switch><text x="210" y="204" fill="rgb(0, 0, 0)" font-family="Comic Sans MS" font-size="12px" text-anchor="middle">DC1</text></switch></g><path d="M 19 205 M 19 205 C 47 201.67 66.5 203.34 121 205 M 19 205 C 48.35 206.15 73.46 202.4 121 205 M 121 205 C 125.71 207.57 126.9 211.13 130 214 M 121 205 C 130.54 205.47 128.04 206 130 214 M 130 214 C 129.15 233.17 129.06 244.95 130 256 M 130 214 C 129 223.35 131.63 231.88 130 256 M 130 256 C 126.34 260.8 128.26 263.07 121 265 M 130 256 C 132.23 265.34 123.9 268.51 121 265 M 121 265 C 97.25 268.5 71.65 267.69 19 265 M 121 265 C 94.24 264.13 63.36 266.93 19 265 M 19 265 C 16.93 263.39 7.97 261.18 10 256 M 19 265 C 17.06 269.22 8.69 264.31 10 256 M 10 256 C 5.99 244.28 5.88 227.86 10 214 M 10 256 C 9.99 241.75 10.35 223.74 10 214 M 10 214 C 6.88 204.01 13.45 205.88 19 205 M 10 214 C 14.27 203.86 10.49 209.14 19 205" fill="none" stroke="rgb(0, 0, 0)" stroke-opacity="0" stroke-width="0.1" stroke-linejoin="round" stroke-linecap="round" stroke-miterlimit="10"></path><g transform="translate(-0.5 -0.5)"><switch><text x="70" y="239" fill="rgb(0, 0, 0)" font-family="Helvetica" font-size="12px" text-anchor="middle">DATACENTER 1</text></switch></g><path d="M 120.12 264.86 C 120.12 264.86 120.12 264.86 120.12 264.86 M 120.12 264.86 C 120.12 264.86 120.12 264.86 120.12 264.86 M 119.86 271.26 C 122.98 269.42 122.74 267.25 125.11 265.22 M 119.86 271.26 C 121.77 269.04 122.14 268.04 125.11 265.22 M 120.25 276.9 C 120.19 275.7 127.44 269.73 130.75 264.83 M 120.25 276.9 C 124.56 272.58 129.6 269.43 130.75 264.83 M 119.99 283.3 C 125.29 279.98 126.5 272.1 135.74 265.19 M 119.99 283.3 C 123.89 275.86 129.86 271.97 135.74 265.19 M 119.73 289.7 C 127.12 284.98 131.22 280.68 141.38 264.79 M 119.73 289.7 C 127.49 282.83 132.97 273.85 141.38 264.79 M 120.13 295.34 C 127.91 284.37 133.79 271.32 146.37 265.15 M 120.13 295.34 C 124.92 289.83 132.84 280.44 146.37 265.15 M 119.86 301.74 C 124.63 294.4 132.33 286.35 152.01 264.76 M 119.86 301.74 C 126 292.84 134.23 285.76 152.01 264.76 M 120.26 307.38 C 129.45 297.48 139.74 282.69 157 265.12 M 120.26 307.38 C 133.84 294.49 143.68 278.9 157 265.12 M 120 313.78 C 131.92 296.48 147.06 283.78 162.64 264.72 M 120 313.78 C 130.93 303.64 139.91 289.91 162.64 264.72 M 119.74 320.18 C 134.83 300.07 148 288.22 167.63 265.08 M 119.74 320.18 C 128.66 307.3 139.94 298.79 167.63 265.08 M 120.13 325.82 C 132.98 310.17 144.88 300.9 173.27 264.69 M 120.13 325.82 C 133.38 310.23 151.22 294.33 173.27 264.69 M 119.87 332.22 C 144.05 307.46 166.29 281.51 178.26 265.05 M 119.87 332.22 C 139 308.8 156.57 287.35 178.26 265.05 M 120.26 337.86 C 130.37 325.19 149.11 307.12 183.9 264.65 M 120.26 337.86 C 143.21 311.53 169.21 285.85 183.9 264.65 M 120 344.26 C 148.47 314.55 174.43 279.15 188.89 265.01 M 120 344.26 C 138.85 321.99 156.43 300.94 188.89 265.01 M 122.37 347.64 C 137.89 323.93 159.91 308.2 193.88 265.37 M 122.37 347.64 C 134.18 328.81 150.27 313.5 193.88 265.37 M 128.01 347.24 C 146.66 326.71 164.68 312.29 199.52 264.98 M 128.01 347.24 C 144.51 328.46 163.63 307.72 199.52 264.98 M 133 347.6 C 157.13 321.41 183.8 291.27 202.54 267.6 M 133 347.6 C 156.16 323.22 178.52 294.29 202.54 267.6 M 138.64 347.21 C 155.3 329.47 166.53 311.56 202.93 273.25 M 138.64 347.21 C 155.68 328.04 171.12 309.13 202.93 273.25 M 143.63 347.57 C 155.3 327.1 165.55 317.08 202.67 279.64 M 143.63 347.57 C 167.91 324.75 189.4 296.52 202.67 279.64 M 149.27 347.17 C 165.4 332.47 182.81 309.32 202.41 286.04 M 149.27 347.17 C 162.19 331.29 177.44 314.15 202.41 286.04 M 154.26 347.53 C 162.92 330.99 177.44 323.17 202.8 291.68 M 154.26 347.53 C 165.1 332.85 178.58 319.25 202.8 291.68 M 159.9 347.14 C 175.96 329.16 186.54 318.94 202.54 298.08 M 159.9 347.14 C 167.87 335.45 177.69 324.84 202.54 298.08 M 164.89 347.5 C 181.35 330.61 195.54 310.65 202.94 303.73 M 164.89 347.5 C 177.35 336.44 188 323.12 202.94 303.73 M 170.53 347.1 C 177.93 340.91 188.39 328.02 202.68 310.12 M 170.53 347.1 C 182.76 334.18 190.19 324.24 202.68 310.12 M 175.52 347.46 C 181.53 335.32 195.84 327.21 202.41 316.52 M 175.52 347.46 C 184.7 336.41 194.34 325.44 202.41 316.52 M 181.16 347.07 C 182.31 340.92 187.07 338.55 202.81 322.16 M 181.16 347.07 C 188.37 341.05 192.33 330.96 202.81 322.16 M 186.15 347.43 C 190 341.97 196.72 338.19 202.55 328.56 M 186.15 347.43 C 189.37 345.44 192.7 341.92 202.55 328.56 M 191.79 347.04 C 197.78 345.12 201.9 341.17 202.94 334.21 M 191.79 347.04 C 196.47 341.21 199.44 336.84 202.94 334.21 M 196.78 347.4 C 199.36 343.86 201.58 341.98 202.68 340.6 M 196.78 347.4 C 198.71 344.99 200.24 342.55 202.68 340.6" fill="none" stroke="#dae8fc" stroke-width="0.5" stroke-linejoin="round" stroke-linecap="round" stroke-miterlimit="10"></path><path d="M 120 265 C 139.08 264.97 162.76 262.51 200 265 M 120 265 C 146.35 266.66 171.53 265.56 200 265 M 200 265 C 200.03 290.66 200.54 319.86 200 345 M 200 265 C 199.54 295.69 200.75 325.48 200 345 M 200 345 C 182.5 342.59 159.67 343.25 120 345 M 200 345 C 167.24 345.58 137.65 345 120 345 M 120 345 C 119.14 317.88 115.66 287.41 120 265 M 120 345 C 119.55 325.01 120.84 304.93 120 265" fill="none" stroke="#6c8ebf" stroke-linejoin="round" stroke-linecap="round" stroke-miterlimit="10"></path><g transform="translate(-0.5 -0.5)"><switch><text x="160" y="309" fill="rgb(0, 0, 0)" font-family="Comic Sans MS" font-size="12px" text-anchor="middle">Basel</text></switch></g><path d="M 126.32 325.9 C 126.32 325.9 126.32 325.9 126.32 325.9 M 126.32 325.9 C 126.32 325.9 126.32 325.9 126.32 325.9 M 126.72 331.54 C 128.83 330.53 128.92 327.87 131.31 326.26 M 126.72 331.54 C 128.01 329.33 129.5 327.71 131.31 326.26 M 127.11 337.19 C 131.79 334.93 131.06 328.63 136.29 326.62 M 127.11 337.19 C 129.95 333.8 133.15 329.76 136.29 326.62 M 126.85 343.58 C 131.35 337.34 129.93 338.92 141.94 326.23 M 126.85 343.58 C 134.11 337.01 136.85 331.63 141.94 326.23 M 125.93 350.74 C 128.29 343.03 141.8 337.42 146.92 326.59 M 125.93 350.74 C 129.94 345.19 137.19 335.81 146.92 326.59 M 127.64 354.87 C 138.84 345.48 147.45 339.82 152.57 326.19 M 127.64 354.87 C 137.65 342.86 143.11 333.71 152.57 326.19 M 132.62 355.23 C 141.05 345.61 147.53 333.71 157.56 326.55 M 132.62 355.23 C 138.69 346.95 146.34 339.75 157.56 326.55 M 138.27 354.84 C 143.57 346.86 158.39 335.66 162.54 326.91 M 138.27 354.84 C 145.86 345.45 150.83 337.86 162.54 326.91 M 143.25 355.2 C 148.66 346.05 159.92 342.37 168.19 326.52 M 143.25 355.2 C 151.91 344.25 160.73 333.18 168.19 326.52 M 148.9 354.8 C 155.29 346.05 155.35 341.21 173.17 326.88 M 148.9 354.8 C 155.74 345.86 161.07 339.39 173.17 326.88 M 153.88 355.16 C 165.4 344.12 167.79 340.76 178.82 326.48 M 153.88 355.16 C 160.14 348.42 166.45 340.48 178.82 326.48 M 159.53 354.77 C 169.68 347.55 181.33 336.8 183.8 326.84 M 159.53 354.77 C 164.54 348.95 170.34 339.81 183.8 326.84 M 164.52 355.13 C 173.19 349.08 179.71 336.89 189.45 326.45 M 164.52 355.13 C 175.33 345.79 184.51 332.62 189.45 326.45 M 170.16 354.73 C 174.93 348.86 183.62 340.22 194.43 326.81 M 170.16 354.73 C 178.47 346.09 181.28 341.47 194.43 326.81 M 175.15 355.09 C 184.71 346.91 184.92 341.22 196.14 330.94 M 175.15 355.09 C 180.93 346.89 187.81 340.18 196.14 330.94 M 180.79 354.7 C 184.39 350.39 189.93 344.82 196.53 336.58 M 180.79 354.7 C 185.27 346.32 191.85 342.67 196.53 336.58 M 185.78 355.06 C 188.54 348.85 191.48 346.53 196.27 342.98 M 185.78 355.06 C 189.63 350.4 193.2 347.75 196.27 342.98 M 190.76 355.42 C 191 355.18 192.9 354.23 196.01 349.38 M 190.76 355.42 C 192.99 353.7 194.22 351.94 196.01 349.38" fill="none" stroke="#d5e8d4" stroke-width="0.5" stroke-linejoin="round" stroke-linecap="round" stroke-miterlimit="10"></path><path d="M 129.5 325 M 129.5 325 C 154.6 325.91 170.88 321.51 190.5 325 M 129.5 325 C 152.43 324.84 171.96 325.69 190.5 325 M 190.5 325 C 197.28 327.98 192.84 325.02 195 329.5 M 190.5 325 C 190.3 325.29 199.19 323.05 195 329.5 M 195 329.5 C 198.21 339.68 196.31 343.62 195 350.5 M 195 329.5 C 193.41 334.18 195.13 340.78 195 350.5 M 195 350.5 C 198.86 354.28 194.15 358.5 190.5 355 M 195 350.5 C 191.67 352.45 193.17 358.43 190.5 355 M 190.5 355 C 177.38 357.5 159.04 355.37 129.5 355 M 190.5 355 C 167.64 352.66 146.37 354.82 129.5 355 M 129.5 355 C 125.12 352.88 127.64 349.64 125 350.5 M 129.5 355 C 130.98 354.79 122.05 352.58 125 350.5 M 125 350.5 C 126.92 347.84 121.44 336.99 125 329.5 M 125 350.5 C 125.08 347.19 123.8 341.46 125 329.5 M 125 329.5 C 124.25 324.74 123.54 327.68 129.5 325 M 125 329.5 C 122.91 328.48 128.77 321.24 129.5 325" fill="none" stroke="#82b366" stroke-linejoin="round" stroke-linecap="round" stroke-miterlimit="10"></path><g transform="translate(-0.5 -0.5)"><switch><text x="160" y="344" fill="rgb(0, 0, 0)" font-family="Comic Sans MS" font-size="12px" text-anchor="middle">node-export...</text></switch></g><path d="M 39 115 M 39 115 C 85.41 116.57 131.52 117.05 221 115 M 39 115 C 84.11 113.69 130.7 114.63 221 115 M 221 115 C 249.49 118.4 263.63 125.37 260 154 M 221 115 C 244.75 116.71 261.44 129.41 260 154 M 260 154 C 260.3 224.77 255.49 295.73 260 366 M 260 154 C 258.31 210.2 260.19 267.23 260 366 M 260 366 C 256.77 388.39 249.35 401.39 221 405 M 260 366 C 258.57 390.37 242.89 408.25 221 405 M 221 405 C 182.82 406.53 145.24 405.59 39 405 M 221 405 C 179.84 406.67 135.56 405.33 39 405 M 39 405 C 16.25 401.11 3.03 392.01 0 366 M 39 405 C 10.67 404.73 -0.47 389.14 0 366 M 0 366 C -1.1 301.63 2.43 234.71 0 154 M 0 366 C 1.24 294.54 2.15 224.77 0 154 M 0 154 C -1.73 124.03 10.75 111.73 39 115 M 0 154 C 3.39 131.69 9 119.3 39 115" fill="none" stroke="rgb(0, 0, 0)" stroke-linejoin="round" stroke-linecap="round" stroke-miterlimit="10" stroke-dasharray="12 12"></path><path d="M 160 205 L 159.9 205 L 160.91 215.73 L 159.4 226.45 L 159.68 237.18 L 159.47 247.91 L 160 258.63" fill="none" stroke="rgb(0, 0, 0)" stroke-linejoin="round" stroke-linecap="round" stroke-miterlimit="10"></path><path d="M 160 263.88 L 159.83 263.8 L 159.37 262.52 L 158.53 261.05 L 157.95 259.71 L 157.3 258.33 L 156.5 256.88 L 156.44 256.76 L 157.32 257.47 L 158 257.78 L 158.59 257.92 L 159.4 258.48 L 160 258.63 L 159.87 258.37 L 160.67 258.23 L 161.28 257.69 L 162.19 257.77 L 162.74 257.11 L 163.5 256.88 L 163.41 256.84 L 163.05 258.41 L 161.81 259.54 L 161.35 261.06 L 160.43 262.35 L 160 263.88 Z Z" fill="rgb(0, 0, 0)" stroke="rgb(0, 0, 0)" stroke-linejoin="round" stroke-linecap="round" stroke-miterlimit="10"></path><path d="M 379 120 M 379 120 C 423.12 122.4 466.88 123.28 561 120 M 379 120 C 439.6 124.2 498.45 123.58 561 120 M 561 120 C 590.9 120.45 601.38 129.62 600 159 M 561 120 C 589.75 118.23 603.37 133.28 600 159 M 600 159 C 601.49 233.92 602.95 306.8 600 371 M 600 159 C 599.98 214.19 599.65 268.51 600 371 M 600 371 C 601.96 394.19 586.32 406.95 561 410 M 600 371 C 599.79 400.09 589.36 410.27 561 410 M 561 410 C 518.07 415.07 477.59 414.17 379 410 M 561 410 C 514.55 410.89 471.32 412.26 379 410 M 379 410 C 356.48 409.54 338.68 394.07 340 371 M 379 410 C 349.74 414.29 339.25 398.93 340 371 M 340 371 C 342.18 284.21 342.15 203.73 340 159 M 340 371 C 337.87 325.1 337.41 282.75 340 159 M 340 159 C 343.14 129.03 351.65 118.11 379 120 M 340 159 C 337.55 137.15 355.63 124.25 379 120" fill="none" stroke="rgb(0, 0, 0)" stroke-linejoin="round" stroke-linecap="round" stroke-miterlimit="10" stroke-dasharray="12 12"></path><g transform="translate(-0.5 -0.5)"><switch><text x="470" y="269" fill="rgb(0, 0, 0)" font-family="Comic Sans MS" font-size="12px" text-anchor="middle"></text></switch></g><path d="M 459.93 270.08 C 459.93 270.08 459.93 270.08 459.93 270.08 M 459.93 270.08 C 459.93 270.08 459.93 270.08 459.93 270.08 M 459.67 276.47 C 460.67 274.16 463.57 272.04 465.58 269.68 M 459.67 276.47 C 462.29 273.95 463.06 271.96 465.58 269.68 M 460.07 282.12 C 464.74 280.18 463.62 275.38 470.56 270.04 M 460.07 282.12 C 461.84 278.63 464.83 276.43 470.56 270.04 M 459.81 288.52 C 460.78 282.75 466.62 280.64 476.21 269.65 M 459.81 288.52 C 463.06 282.03 469.5 277.69 476.21 269.65 M 460.2 294.16 C 468.53 287.98 475.77 277.6 481.19 270.01 M 460.2 294.16 C 465.05 288.14 469.81 281.44 481.19 270.01 M 459.94 300.56 C 466.74 291.48 475.42 283.01 486.18 270.37 M 459.94 300.56 C 470.78 289.44 480.47 275.27 486.18 270.37 M 459.68 306.95 C 463 296.78 473.86 289.65 491.82 269.97 M 459.68 306.95 C 473.11 293.52 486.3 278.43 491.82 269.97 M 460.07 312.6 C 470.59 294.33 484.57 278.33 496.81 270.33 M 460.07 312.6 C 470.86 299.41 479.7 290.17 496.81 270.33 M 459.81 318.99 C 476.4 302.68 491.88 281.73 502.45 269.94 M 459.81 318.99 C 473.52 302.01 490.13 284.43 502.45 269.94 M 460.2 324.64 C 476.81 306.69 486.25 293.93 507.44 270.3 M 460.2 324.64 C 472.93 310.96 485.59 292.26 507.44 270.3 M 459.94 331.04 C 479.45 310.3 490.73 292.26 513.08 269.9 M 459.94 331.04 C 473.28 318.08 485.91 303.24 513.08 269.9 M 459.68 337.43 C 477.13 317.17 497.56 289.72 518.07 270.26 M 459.68 337.43 C 474.4 319.43 494.42 298.95 518.07 270.26 M 460.08 343.08 C 487.64 314.66 513.14 286.16 523.71 269.87 M 460.08 343.08 C 478.69 320.07 494.51 301.42 523.71 269.87 M 459.81 349.47 C 482.43 324.19 513.36 287.69 528.7 270.23 M 459.81 349.47 C 486.86 318.63 512.55 289.49 528.7 270.23 M 462.83 352.1 C 486.44 321.06 511.44 294.38 534.34 269.83 M 462.83 352.1 C 478.4 334.61 493.37 319.96 534.34 269.83 M 467.82 352.46 C 489.12 332.37 503.39 311.45 539.33 270.2 M 467.82 352.46 C 482.08 335.23 496.98 317.81 539.33 270.2 M 473.46 352.06 C 490.57 335.02 509.33 311.52 543.01 272.06 M 473.46 352.06 C 493.89 324.52 518.5 301.07 543.01 272.06 M 478.45 352.42 C 496.66 339.65 510.59 319.46 542.74 278.46 M 478.45 352.42 C 505.52 323.36 531.77 293.98 542.74 278.46 M 484.09 352.03 C 496.86 334.09 511.59 320.52 542.48 284.86 M 484.09 352.03 C 496.71 338.39 507.64 324.17 542.48 284.86 M 489.08 352.39 C 510.9 330.6 526.75 308.15 542.88 290.5 M 489.08 352.39 C 507.82 329.97 530.45 308.39 542.88 290.5 M 494.72 351.99 C 507.48 336.52 523.08 319.36 542.62 296.9 M 494.72 351.99 C 508.31 340.01 518.75 325.26 542.62 296.9 M 499.71 352.35 C 510.79 338.75 525.26 326.24 543.01 302.54 M 499.71 352.35 C 511.74 336.66 525.48 323.55 543.01 302.54 M 505.35 351.96 C 514.26 338.16 529.41 324.97 542.75 308.94 M 505.35 351.96 C 513.77 341.5 523.2 328.48 542.75 308.94 M 510.34 352.32 C 514.44 346.74 524.83 335.92 542.49 315.34 M 510.34 352.32 C 523.72 337.54 533.01 323.42 542.49 315.34 M 515.33 352.68 C 524.73 345.66 532.26 332.93 542.88 320.98 M 515.33 352.68 C 521.71 342.54 530.65 333.01 542.88 320.98 M 520.97 352.29 C 528.93 345.56 526.82 340.56 542.62 327.38 M 520.97 352.29 C 528.9 344.37 537.01 335.28 542.62 327.38 M 525.96 352.65 C 527.08 349.64 531.87 343.75 543.02 333.02 M 525.96 352.65 C 527.96 348.93 533.48 345.19 543.02 333.02 M 531.6 352.25 C 534.13 350.89 538.83 343.2 542.75 339.42 M 531.6 352.25 C 536.64 347.11 540.39 343.37 542.75 339.42 M 536.59 352.61 C 537.6 350.82 539.88 350.42 542.49 345.82 M 536.59 352.61 C 538.66 350.59 540.37 348.51 542.49 345.82" fill="none" stroke="#dae8fc" stroke-width="0.5" stroke-linejoin="round" stroke-linecap="round" stroke-miterlimit="10"></path><path d="M 460 270 C 480.25 271.7 502.48 268.39 540 270 M 460 270 C 480.12 270.41 499.9 269.89 540 270 M 540 270 C 535.8 295.59 537.72 314.26 540 350 M 540 270 C 541.91 287.94 539.31 309.95 540 350 M 540 350 C 513.18 354.84 477.64 349.42 460 350 M 540 350 C 513.27 351.81 485.11 350.68 460 350 M 460 350 C 459.82 325.56 456.66 300.81 460 270 M 460 350 C 459.03 335.17 460.98 318.37 460 270" fill="none" stroke="#6c8ebf" stroke-linejoin="round" stroke-linecap="round" stroke-miterlimit="10"></path><g transform="translate(-0.5 -0.5)"><switch><text x="500" y="314" fill="rgb(0, 0, 0)" font-family="Comic Sans MS" font-size="12px" text-anchor="middle">Zurich</text></switch></g><path d="M 436.31 153.85 L 558.43 151.01 L 563.36 208.93 L 441.08 212.58" fill="url(#mx-gradient-fff2cc-1-ffd966-1-s-0)" stroke="none"></path><path d="M 440 150 C 465.47 152.16 496.95 147.97 560 150 M 440 150 C 466.27 153.6 496.21 154.39 560 150 M 560 150 C 562.53 168.05 560.29 188.44 560 210 M 560 150 C 560.55 162.28 562.02 176.11 560 210 M 560 210 C 523.7 206.79 482.75 207.25 440 210 M 560 210 C 522.96 211.97 483.16 209.78 440 210 M 440 210 C 435.83 191.62 438.21 177.16 440 150 M 440 210 C 439.92 186.41 441.18 163.9 440 150" fill="none" stroke="#d6b656" stroke-linejoin="round" stroke-linecap="round" stroke-miterlimit="10"></path><g transform="translate(-0.5 -0.5)"><switch><text x="500" y="184" fill="rgb(0, 0, 0)" font-family="Comic Sans MS" font-size="12px" text-anchor="middle">Prometheus</text></switch></g><path d="M 500 210 L 500.16 210 L 500.31 216 L 500.24 222 L 499.92 228 L 499.81 234 L 500 240 L 499.81 240 L 499.88 244.73 L 500.29 249.45 L 499.78 254.18 L 499.93 258.91 L 500 263.63" fill="none" stroke="rgb(0, 0, 0)" stroke-linejoin="round" stroke-linecap="round" stroke-miterlimit="10"></path><path d="M 500 268.88 L 499.94 268.85 L 499.36 267.51 L 498.63 266.1 L 497.92 264.69 L 497.17 263.26 L 496.5 261.88 L 496.36 261.6 L 497.09 262.02 L 497.92 262.62 L 498.49 262.72 L 499.31 263.29 L 500 263.63 L 500.09 263.82 L 500.76 263.39 L 501.47 263.07 L 502.18 262.74 L 502.76 262.16 L 503.5 261.88 L 503.33 261.8 L 503.08 263.42 L 501.99 264.63 L 501.46 266.11 L 500.5 267.38 L 500 268.88 Z Z" fill="rgb(0, 0, 0)" stroke="rgb(0, 0, 0)" stroke-linejoin="round" stroke-linecap="round" stroke-miterlimit="10"></path><path d="M 466.13 331.12 C 466.13 331.12 466.13 331.12 466.13 331.12 M 466.13 331.12 C 466.13 331.12 466.13 331.12 466.13 331.12 M 467.18 336 C 468.92 334.17 469.52 334.95 471.12 331.48 M 467.18 336 C 468.31 335.36 469.58 334.28 471.12 331.48 M 466.92 342.4 C 468.64 336.5 472.98 336.67 476.11 331.84 M 466.92 342.4 C 471.58 339 473.22 335.54 476.11 331.84 M 466.66 348.8 C 470.61 341.3 477.33 339.01 481.75 331.44 M 466.66 348.8 C 470.62 342.64 474.53 340.66 481.75 331.44 M 465.74 355.95 C 476.99 343.69 485.27 337.99 486.74 331.8 M 465.74 355.95 C 469.27 350.82 476.2 344.82 486.74 331.8 M 467.45 360.09 C 473.28 354.59 481.14 346.4 492.38 331.41 M 467.45 360.09 C 472.11 350.55 479.78 344.77 492.38 331.41 M 473.09 359.69 C 479.09 350.93 491.86 338.29 497.37 331.77 M 473.09 359.69 C 481.7 350.56 491.01 337.45 497.37 331.77 M 478.08 360.05 C 486.74 347.98 497 339.07 503.01 331.37 M 478.08 360.05 C 485.05 350.93 496.05 339.63 503.01 331.37 M 483.72 359.66 C 491.17 347.53 497.31 342.08 508 331.73 M 483.72 359.66 C 488.7 354.61 494.98 344.06 508 331.73 M 488.71 360.02 C 497.57 347.41 502 337.98 513.64 331.34 M 488.71 360.02 C 494.44 352.79 501.62 348.62 513.64 331.34 M 494.35 359.62 C 504.11 353.62 510.34 337.29 518.63 331.7 M 494.35 359.62 C 504.23 351.53 513.3 339.22 518.63 331.7 M 499.34 359.98 C 504.05 353.57 513.01 343.4 524.27 331.3 M 499.34 359.98 C 503.97 353.26 512.73 346.15 524.27 331.3 M 504.33 360.34 C 507.33 352.62 514.63 347.91 529.26 331.66 M 504.33 360.34 C 513.4 350.25 521.51 341.72 529.26 331.66 M 509.97 359.95 C 516.84 352.12 522.35 345.01 534.24 332.02 M 509.97 359.95 C 515.1 352.52 520.55 346.25 534.24 332.02 M 514.96 360.31 C 523.29 354.91 522.65 347.33 536.61 335.4 M 514.96 360.31 C 524.04 352.14 529.94 340.93 536.61 335.4 M 520.6 359.91 C 525.11 353.06 529.68 352.52 536.35 341.8 M 520.6 359.91 C 522.83 353.73 528.12 351.19 536.35 341.8 M 525.59 360.27 C 525.42 355.22 533.15 354 536.08 348.2 M 525.59 360.27 C 528.48 356.46 534.75 351.28 536.08 348.2 M 530.57 360.63 C 532.06 358.42 533.51 357.52 535.82 354.6 M 530.57 360.63 C 531.88 358.95 533.82 356.55 535.82 354.6" fill="none" stroke="#d5e8d4" stroke-width="0.5" stroke-linejoin="round" stroke-linecap="round" stroke-miterlimit="10"></path><path d="M 469.5 330 M 469.5 330 C 489.59 333.75 519.37 332.9 530.5 330 M 469.5 330 C 482.97 329.65 495.75 332.38 530.5 330 M 530.5 330 C 534.41 332.35 532.61 328.39 535 334.5 M 530.5 330 C 537.63 329.32 537.42 333.71 535 334.5 M 535 334.5 C 536.92 340.29 536.25 351.51 535 355.5 M 535 334.5 C 534.9 340.65 534.89 348.48 535 355.5 M 535 355.5 C 533.43 360.75 533.4 362.14 530.5 360 M 535 355.5 C 539.03 358.39 533.62 364.27 530.5 360 M 530.5 360 C 511.49 361.47 488.87 363.79 469.5 360 M 530.5 360 C 507.5 360.13 485.94 359.61 469.5 360 M 469.5 360 C 462.52 363.8 461.69 361.69 465 355.5 M 469.5 360 C 470.58 360.48 465.66 361.11 465 355.5 M 465 355.5 C 461.98 351.32 465.22 342.8 465 334.5 M 465 355.5 C 465.96 348.78 464.99 338.85 465 334.5 M 465 334.5 C 461.08 331.28 462.61 326.86 469.5 330 M 465 334.5 C 467.42 332.94 467.22 331.04 469.5 330" fill="none" stroke="#82b366" stroke-linejoin="round" stroke-linecap="round" stroke-miterlimit="10"></path><g transform="translate(-0.5 -0.5)"><switch><text x="500" y="349" fill="rgb(0, 0, 0)" font-family="Comic Sans MS" font-size="12px" text-anchor="middle">node-export...</text></switch></g><path d="M 530.93 191.34 C 530.93 191.34 530.93 191.34 530.93 191.34 M 530.93 191.34 C 530.93 191.34 530.93 191.34 530.93 191.34 M 531.98 196.23 C 533.5 194.22 535.41 193.08 535.92 191.7 M 531.98 196.23 C 533.94 194.71 534.48 192.67 535.92 191.7 M 532.38 201.88 C 537.33 200.25 535.3 194.23 541.56 191.31 M 532.38 201.88 C 533.7 200.41 537.12 195.08 541.56 191.31 M 532.77 207.52 C 539.42 198.89 541.08 194.89 546.55 191.67 M 532.77 207.52 C 536.38 199.74 542 195.92 546.55 191.67 M 532.51 213.92 C 540.85 210.76 542.76 198.02 551.54 192.03 M 532.51 213.92 C 539.05 208.22 541.75 202.47 551.54 192.03 M 532.25 220.31 C 535.74 216.31 546.98 203.59 556.53 192.39 M 532.25 220.31 C 541.15 207.1 551.76 199.35 556.53 192.39 M 537.89 219.92 C 542.37 213.84 551.62 205.29 562.17 192 M 537.89 219.92 C 547.75 210.27 555.74 199.09 562.17 192 M 542.88 220.28 C 551.25 212.47 561.51 200.77 567.16 192.36 M 542.88 220.28 C 550.17 210.98 554.38 206.11 567.16 192.36 M 548.52 219.89 C 556.47 211.92 568.61 199.16 571.49 193.47 M 548.52 219.89 C 555.5 212.57 560.85 204.91 571.49 193.47 M 553.51 220.25 C 559.44 215.74 571.28 202.83 571.22 199.87 M 553.51 220.25 C 559.66 216.32 562.72 206.8 571.22 199.87 M 559.15 219.85 C 564.64 218.68 565.12 214.15 571.62 205.51 M 559.15 219.85 C 561.99 216.29 566.83 209.62 571.62 205.51 M 564.14 220.21 C 564.99 215.27 571.11 213.79 571.36 211.91 M 564.14 220.21 C 564.85 218.75 567.15 217.07 571.36 211.91" fill="none" stroke="#f8cecc" stroke-width="0.5" stroke-linejoin="round" stroke-linecap="round" stroke-miterlimit="10"></path><path d="M 534.5 190 M 534.5 190 C 546.95 191.93 550.94 186.53 565.5 190 M 534.5 190 C 541.52 190.69 550.42 188.37 565.5 190 M 565.5 190 C 571.16 187.55 567.53 191.29 570 194.5 M 565.5 190 C 569.52 185.42 571.25 192.4 570 194.5 M 570 194.5 C 572.13 195.83 569.24 204.24 570 215.5 M 570 194.5 C 570.33 201.93 569.54 208.85 570 215.5 M 570 215.5 C 567.24 217.83 567.89 216.28 565.5 220 M 570 215.5 C 567.4 216.17 565.66 223.94 565.5 220 M 565.5 220 C 551.72 217.03 541.98 224.11 534.5 220 M 565.5 220 C 553.12 221.42 541.25 218.74 534.5 220 M 534.5 220 C 532.02 216.36 526.38 218.73 530 215.5 M 534.5 220 C 527.81 222.42 534.17 220.45 530 215.5 M 530 215.5 C 526.84 207.77 532.59 204.61 530 194.5 M 530 215.5 C 528.73 209.51 531.49 202.75 530 194.5 M 530 194.5 C 530.83 192.84 533.55 187.53 534.5 190 M 530 194.5 C 527.74 194.03 530.44 190.06 534.5 190" fill="none" stroke="#b85450" stroke-linejoin="round" stroke-linecap="round" stroke-miterlimit="10"></path><g transform="translate(-0.5 -0.5)"><switch><text x="550" y="209" fill="rgb(0, 0, 0)" font-family="Comic Sans MS" font-size="12px" text-anchor="middle">DC2</text></switch></g><path d="M 369 210 M 369 210 C 394.72 214.22 419.86 208.3 471 210 M 369 210 C 404.09 206.34 439.69 209.03 471 210 M 471 210 C 477.12 209.63 482.66 215.39 480 219 M 471 210 C 476.34 207 479.97 209.86 480 219 M 480 219 C 478.68 239.41 477.71 249.88 480 261 M 480 219 C 480.28 229.27 480.41 236.82 480 261 M 480 261 C 481.53 266.6 475.22 268.63 471 270 M 480 261 C 483.46 265.87 480.38 270.53 471 270 M 471 270 C 443.76 269.05 416.51 268.28 369 270 M 471 270 C 440.22 268.48 411.66 269.99 369 270 M 369 270 C 359.16 271.81 361.62 263.23 360 261 M 369 270 C 366.12 269.59 358.41 264.91 360 261 M 360 261 C 358.78 249.47 362.64 243.31 360 219 M 360 261 C 361.55 251.21 360.34 239.77 360 219 M 360 219 C 361.75 209.01 364.34 212.27 369 210 M 360 219 C 358.43 209.32 367.11 214.08 369 210" fill="none" stroke="rgb(0, 0, 0)" stroke-opacity="0" stroke-width="0.1" stroke-linejoin="round" stroke-linecap="round" stroke-miterlimit="10"></path><g transform="translate(-0.5 -0.5)"><switch><text x="420" y="244" fill="rgb(0, 0, 0)" font-family="Helvetica" font-size="12px" text-anchor="middle">DATACENTER 2</text></switch></g></g><switch><g></g><a transform="translate(0,-5)" xlink:href="https://www.diagrams.net/doc/faq/svg-export-text-problems"><text text-anchor="middle" font-size="10px" x="50%" y="100%">Text is not SVG - cannot display</text></a></switch></svg> 