<?xml version="1.0" encoding="UTF-8"?> <svg xmlns="http://www.w3.org/2000/svg" xmlns:xlink="http://www.w3.org/1999/xlink" version="1.1" width="425px" height="291px" viewBox="-0.5 -0.5 425 291"><defs><linearGradient x1="0%" y1="0%" x2="0%" y2="100%" id="mx-gradient-fff2cc-1-ffd966-1-s-0"><stop offset="0%" style="stop-color: rgb(255, 242, 204); stop-opacity: 1;"></stop><stop offset="100%" style="stop-color: rgb(255, 217, 102); stop-opacity: 1;"></stop></linearGradient></defs><g><rect x="0" y="0" width="154" height="120" fill="none" stroke="none"></rect><path d="M 1.26 -0.61 L 152.21 -2.42 L 153.72 121.87 L 1.89 118.61" fill="url(#mx-gradient-fff2cc-1-ffd966-1-s-0)" stroke="none"></path><path d="M 0 0 C 36.05 2 78.18 -2.59 154 0 M 0 0 C 55.53 -0.45 109.97 -2.09 154 0 M 154 0 C 154.85 37.3 154.89 67.94 154 120 M 154 0 C 155.87 27.99 155.54 53.52 154 120 M 154 120 C 93.64 119.56 39.45 125.02 0 120 M 154 120 C 110.1 121.5 71.88 121.53 0 120 M 0 120 C -3.13 78.51 -1.81 45.27 0 0 M 0 120 C 0.06 91.38 0.99 63.99 0 0" fill="none" stroke="#d6b656" stroke-linejoin="round" stroke-linecap="round" stroke-miterlimit="10"></path><g transform="translate(-0.5 -0.5)"><switch><text x="77" y="64" fill="rgb(0, 0, 0)" font-family="Comic Sans MS" font-size="12px" text-anchor="middle">Prometheus_DC1</text></switch></g><path d="M 204 60 L 204 130 L 206.8 163.65" fill="none" stroke="none"></path><path d="M 207.24 168.89 L 203.17 162.2 L 206.8 163.65 L 210.15 161.62 Z" fill="none" stroke="none"></path><path d="M 204 60 M 204 60 C 205.52 77.14 208.74 96.1 204 130 M 204 60 C 203.25 86.22 204.34 109.43 204 130 M 204 130 C 207.26 142.03 201.82 148.26 206.8 163.65 M 204 130 C 205.82 135.17 207.25 144.28 206.8 163.65" fill="none" stroke="rgb(0, 0, 0)" stroke-linejoin="round" stroke-linecap="round" stroke-miterlimit="10"></path><path d="M 203.49 161.83 C 203.49 161.83 203.49 161.83 203.49 161.83 M 203.49 161.83 C 203.49 161.83 203.49 161.83 203.49 161.83 M 205.2 165.97 C 206.02 165.94 205.59 165.07 207.17 163.7 M 205.2 165.97 C 205.68 165.17 206.22 164.99 207.17 163.7" fill="none" stroke="rgb(0, 0, 0)" stroke-width="0.5" stroke-linejoin="round" stroke-linecap="round" stroke-miterlimit="10"></path><path d="M 207.24 168.89 M 207.24 168.89 C 207.44 168.77 205.73 166.25 203.17 162.2 M 207.24 168.89 C 205.95 166.47 205.23 165.73 203.17 162.2 M 203.17 162.2 C 203.63 162.72 205.86 162.9 206.8 163.65 M 203.17 162.2 C 204.12 162.35 205.28 163.15 206.8 163.65 M 206.8 163.65 C 208.08 162.8 208.12 162.28 210.15 161.62 M 206.8 163.65 C 207.8 163.27 208.96 162.7 210.15 161.62 M 210.15 161.62 C 210.04 163.47 207.86 166.23 207.24 168.89 M 210.15 161.62 C 209.4 163.62 208.3 167.37 207.24 168.89" fill="none" stroke="rgb(0, 0, 0)" stroke-linejoin="round" stroke-linecap="round" stroke-miterlimit="10"></path><path d="M 153.76 170.28 C 153.76 170.28 153.76 170.28 153.76 170.28 M 153.76 170.28 C 153.76 170.28 153.76 170.28 153.76 170.28 M 154.15 175.92 C 157.28 174.08 157.03 171.91 159.4 169.88 M 154.15 175.92 C 156.06 173.71 156.43 172.7 159.4 169.88 M 153.89 182.32 C 153.83 181.12 161.08 175.14 164.39 170.24 M 153.89 182.32 C 158.19 178 163.24 174.84 164.39 170.24 M 154.29 187.96 C 159.59 184.64 160.79 176.76 170.03 169.85 M 154.29 187.96 C 158.18 180.53 164.15 176.63 170.03 169.85 M 154.03 194.36 C 161.26 189.81 165.19 185.7 175.02 170.21 M 154.03 194.36 C 161.6 187.72 166.9 178.95 175.02 170.21 M 153.76 200.76 C 161.75 189.53 167.86 176.22 180.66 169.81 M 153.76 200.76 C 158.72 195.08 166.79 185.51 180.66 169.81 M 154.16 206.4 C 158.77 199.25 166.3 191.39 185.65 170.17 M 154.16 206.4 C 160.15 197.67 168.23 190.76 185.65 170.17 M 153.9 212.8 C 163.26 202.7 173.71 187.72 191.29 169.78 M 153.9 212.8 C 167.7 199.65 177.77 183.79 191.29 169.78 M 154.29 218.44 C 166.01 201.36 180.96 188.88 196.28 170.14 M 154.29 218.44 C 165.06 208.47 173.89 194.92 196.28 170.14 M 154.03 224.84 C 169.13 204.73 182.29 192.89 201.92 169.74 M 154.03 224.84 C 162.96 211.96 174.24 203.45 201.92 169.74 M 153.77 231.24 C 166.62 215.59 178.52 206.32 206.91 170.1 M 153.77 231.24 C 167.02 215.65 184.86 199.74 206.91 170.1 M 154.16 236.88 C 178.34 212.12 200.58 186.17 212.55 169.71 M 154.16 236.88 C 173.3 213.47 190.87 192.01 212.55 169.71 M 153.9 243.28 C 164.01 230.61 182.75 212.54 217.54 170.07 M 153.9 243.28 C 176.85 216.95 202.85 191.27 217.54 170.07 M 154.3 248.92 C 182.76 219.22 208.73 183.81 223.18 169.68 M 154.3 248.92 C 173.14 226.65 190.72 205.6 223.18 169.68 M 154.04 255.32 C 170.16 230.87 192.83 214.39 228.17 170.04 M 154.04 255.32 C 166.34 235.84 182.97 219.9 228.17 170.04 M 153.77 261.72 C 174.58 238.88 194.59 222.17 233.81 169.64 M 153.77 261.72 C 172.3 240.62 193.47 217.51 233.81 169.64 M 154.17 267.36 C 183.93 234.85 215.97 198.52 238.8 170 M 154.17 267.36 C 182.11 237.29 209.32 202.78 238.8 170 M 153.91 273.76 C 176.91 249.19 194.14 224.37 243.79 170.36 M 153.91 273.76 C 177.5 247.2 199.13 221.18 243.79 170.36 M 155.61 277.89 C 174.57 247.72 192.8 228.52 249.43 169.97 M 155.61 277.89 C 193.51 240.55 228 197.38 249.43 169.97 M 160.6 278.25 C 189.06 250.25 217.93 213.91 254.42 170.33 M 160.6 278.25 C 184.26 248.71 210.93 218.44 254.42 170.33 M 166.24 277.86 C 186.19 248.51 211.79 227.95 260.06 169.93 M 166.24 277.86 C 188.08 250.41 212.15 224.63 260.06 169.93 M 171.23 278.22 C 202.7 241.25 228.97 212.98 263.08 172.56 M 171.23 278.22 C 189.58 254.07 210.62 230.55 263.08 172.56 M 176.87 277.82 C 212.97 239.37 245.9 197.84 263.47 178.2 M 176.87 277.82 C 204.4 250.71 229.44 220.84 263.47 178.2 M 181.86 278.18 C 201.01 257.73 223.46 231.04 263.21 184.6 M 181.86 278.18 C 210.57 246.99 234.05 218.6 263.21 184.6 M 187.5 277.79 C 210.51 246.43 241.58 219.04 263.61 190.24 M 187.5 277.79 C 215.6 246.44 243.69 214.26 263.61 190.24 M 192.49 278.15 C 203.4 260.31 218.43 246.11 263.35 196.64 M 192.49 278.15 C 213.8 255.65 231.84 229.37 263.35 196.64 M 198.13 277.75 C 212.82 261.38 229.29 246.37 263.08 203.04 M 198.13 277.75 C 212.09 265.19 225.32 250.28 263.08 203.04 M 203.12 278.11 C 225.7 258.03 245.76 235.9 263.48 208.68 M 203.12 278.11 C 226.98 250.97 248.91 224.61 263.48 208.68 M 208.76 277.72 C 229.45 252.02 249.46 230.52 263.22 215.08 M 208.76 277.72 C 226.53 256.88 243.94 235.33 263.22 215.08 M 213.75 278.08 C 230.76 255.1 244.6 240.26 263.61 220.72 M 213.75 278.08 C 233.02 255.43 252.11 232.66 263.61 220.72 M 219.39 277.68 C 226.16 264.8 235.61 257.07 263.35 227.12 M 219.39 277.68 C 229.2 265.07 240.21 250.79 263.35 227.12 M 224.38 278.04 C 240.85 259.61 251.27 245.67 263.09 233.52 M 224.38 278.04 C 230.86 267.89 242.28 257.73 263.09 233.52 M 230.02 277.65 C 240.42 263.88 253.31 251.68 263.48 239.16 M 230.02 277.65 C 238.08 266.89 245.24 257.4 263.48 239.16 M 235.01 278.01 C 239.19 269.59 247.01 262.69 263.22 245.56 M 235.01 278.01 C 243.43 270.3 250.45 262.28 263.22 245.56 M 240 278.37 C 245.75 269.11 254.83 258.87 263.62 251.2 M 240 278.37 C 246.19 270.59 255.54 259.41 263.62 251.2 M 245.64 277.97 C 249.13 274.32 253.94 265.5 263.36 257.6 M 245.64 277.97 C 249.54 272.19 256.14 268.1 263.36 257.6 M 250.63 278.33 C 253.93 278.2 259.69 269.93 263.09 263.99 M 250.63 278.33 C 255.39 274.71 257.83 266.87 263.09 263.99 M 256.27 277.94 C 256.42 276.17 260.75 271.6 263.49 269.64 M 256.27 277.94 C 258.1 276.41 261.17 272.58 263.49 269.64" fill="none" stroke="#dae8fc" stroke-width="0.5" stroke-linejoin="round" stroke-linecap="round" stroke-miterlimit="10"></path><path d="M 154 170 C 179.58 169.85 209.75 167.39 260.67 170 M 154 170 C 188.94 172.14 222.71 171.04 260.67 170 M 260.67 170 C 260.22 205.18 260.73 243.92 260.67 276.67 M 260.67 170 C 259.86 210.76 261.07 250.63 260.67 276.67 M 260.67 276.67 C 237.06 274.21 208.14 274.87 154 276.67 M 260.67 276.67 C 217.59 276.9 177.7 276.32 154 276.67 M 154 276.67 C 152.89 239.91 149.4 199.8 154 170 M 154 276.67 C 153.6 250.18 154.89 223.61 154 170" fill="none" stroke="#6c8ebf" stroke-linejoin="round" stroke-linecap="round" stroke-miterlimit="10"></path><g transform="translate(-0.5 -0.5)"><switch><text x="207" y="227" fill="rgb(0, 0, 0)" font-family="Comic Sans MS" font-size="12px" text-anchor="middle">Node01</text></switch></g><path d="M 162.15 251.77 C 162.15 251.77 162.15 251.77 162.15 251.77 M 162.15 251.77 C 162.15 251.77 162.15 251.77 162.15 251.77 M 162.54 257.41 C 164.96 256.25 165.07 253.22 167.79 251.37 M 162.54 257.41 C 164.02 254.88 165.72 253.03 167.79 251.37 M 162.28 263.81 C 167.96 261.07 167.08 253.41 173.43 250.98 M 162.28 263.81 C 165.72 259.7 169.61 254.79 173.43 250.98 M 162.67 269.45 C 167.32 263.04 166.03 264.47 178.42 251.34 M 162.67 269.45 C 170.16 262.61 173.13 256.97 178.42 251.34 M 162.41 275.85 C 164.96 267.94 178.65 262.11 184.06 250.94 M 162.41 275.85 C 166.6 270.1 174.03 260.51 184.06 250.94 M 162.81 281.49 C 174.44 271.6 183.46 265.46 189.05 251.3 M 162.81 281.49 C 173.27 268.94 179.2 259.25 189.05 251.3 M 163.86 286.38 C 174.25 274.53 182.67 260.41 194.69 250.91 M 163.86 286.38 C 171.34 276.38 180.47 267.48 194.69 250.91 M 165.56 290.52 C 174.2 278.49 192.52 263.28 199.68 251.27 M 165.56 290.52 C 175.69 277.8 183.37 267.09 199.68 251.27 M 170.55 290.88 C 178.47 278.45 192.44 271.65 205.32 250.88 M 170.55 290.88 C 182.8 275.81 195.1 260.75 205.32 250.88 M 176.2 290.48 C 184.47 279.45 186.52 272.32 210.31 251.24 M 176.2 290.48 C 185.74 278.47 193.83 268.83 210.31 251.24 M 181.18 290.84 C 195.63 276.47 200.77 269.95 215.3 251.6 M 181.18 290.84 C 189.75 281.72 198.23 271.29 215.3 251.6 M 186.83 290.45 C 200.66 279.07 216.02 264.05 220.94 251.2 M 186.83 290.45 C 194.26 281.54 202.66 269.4 220.94 251.2 M 191.81 290.81 C 203.35 281.68 212.66 266.28 225.93 251.56 M 191.81 290.81 C 206.17 277.49 218.84 260.29 225.93 251.56 M 196.8 291.17 C 203.79 282.7 214.77 271.43 231.57 251.17 M 196.8 291.17 C 207.97 279.32 213.4 271.68 231.57 251.17 M 202.44 290.77 C 215.99 277.97 220.42 267.42 236.56 251.53 M 202.44 290.77 C 212.02 278.11 222.74 266.98 236.56 251.53 M 207.43 291.13 C 216.62 280.65 227.83 268.57 242.2 251.13 M 207.43 291.13 C 219.34 274.53 233.06 262.67 242.2 251.13 M 213.07 290.74 C 223.1 275.45 233.3 265.05 247.19 251.49 M 213.07 290.74 C 224.63 277.67 235.4 267.1 247.19 251.49 M 218.06 291.1 C 223.71 284.87 233.12 277.13 252.83 251.1 M 218.06 291.1 C 229.84 279.53 239.53 267.53 252.83 251.1 M 223.7 290.7 C 238.93 278.08 245.1 260.14 256.51 252.97 M 223.7 290.7 C 236.43 277.22 246.02 264.78 256.51 252.97 M 228.69 291.06 C 238.36 275.2 251.74 268.22 258.21 257.1 M 228.69 291.06 C 234.41 284.94 242.99 276.35 258.21 257.1 M 234.33 290.67 C 238.48 281.06 244.06 276.86 257.95 263.5 M 234.33 290.67 C 239.33 286.35 242.75 278.17 257.95 263.5 M 239.32 291.03 C 246.73 284.84 251.58 280.95 258.35 269.14 M 239.32 291.03 C 245.09 284.6 246.9 278.53 258.35 269.14 M 244.96 290.63 C 245.71 290 246.89 287.9 258.08 275.54 M 244.96 290.63 C 249.07 286.67 253.04 282.77 258.08 275.54 M 249.95 290.99 C 251.67 285.29 258.14 283.56 257.82 281.94 M 249.95 290.99 C 252.89 286.92 255.24 284.79 257.82 281.94" fill="none" stroke="#d5e8d4" stroke-width="0.5" stroke-linejoin="round" stroke-linecap="round" stroke-miterlimit="10"></path><path d="M 166.88 250 M 166.88 250 C 185.07 245.94 211.95 246.94 251.13 250 M 166.88 250 C 199.93 251.58 233.72 251.27 251.13 250 M 251.13 250 C 251.27 250.49 254.24 254.32 257.13 256 M 251.13 250 C 251.23 247.94 255.5 247.45 257.13 256 M 257.13 256 C 255.08 265.56 254.3 275.54 257.13 284 M 257.13 256 C 256.39 265.76 257.68 275.63 257.13 284 M 257.13 284 C 254.6 288.22 254.31 293.91 251.13 290 M 257.13 284 C 253.11 291.87 253.56 290.64 251.13 290 M 251.13 290 C 224.91 289.82 208.18 290.83 166.88 290 M 251.13 290 C 223.1 290.43 194.51 292.92 166.88 290 M 166.88 290 C 159.35 286.17 157.87 287.76 160.88 284 M 166.88 290 C 161.66 286.74 161.51 284.25 160.88 284 M 160.88 284 C 165.19 277.91 160.53 269.09 160.88 256 M 160.88 284 C 160.13 274.65 160.57 265.32 160.88 256 M 160.88 256 C 157.06 248.17 159.02 249.48 166.88 250 M 160.88 256 C 162.46 249.47 161.58 252.37 166.88 250" fill="none" stroke="#82b366" stroke-linejoin="round" stroke-linecap="round" stroke-miterlimit="10"></path><g transform="translate(-0.5 -0.5)"><switch><text x="209" y="274" fill="rgb(0, 0, 0)" font-family="Comic Sans MS" font-size="12px" text-anchor="middle">node-exporter</text></switch></g><path d="M 265.77 1.08 L 426.72 -2.86 L 427.43 118.84 L 267.04 122.76" fill="url(#mx-gradient-fff2cc-1-ffd966-1-s-0)" stroke="none"></path><path d="M 264 0 C 301.63 -1.67 344.71 3.96 424 0 M 264 0 C 302.53 -2.7 339.58 -1.36 424 0 M 424 0 C 422.17 36.06 423.09 77.87 424 120 M 424 0 C 423.48 35.88 425.24 76.5 424 120 M 424 120 C 375.72 120.22 321.49 119.42 264 120 M 424 120 C 386.73 118.54 352.06 118.2 264 120 M 264 120 C 268.37 89.89 267.38 57.08 264 0 M 264 120 C 263.64 79.77 266.53 41.29 264 0" fill="none" stroke="#d6b656" stroke-linejoin="round" stroke-linecap="round" stroke-miterlimit="10"></path><g transform="translate(-0.5 -0.5)"><switch><text x="344" y="64" fill="rgb(0, 0, 0)" font-family="Comic Sans MS" font-size="12px" text-anchor="middle">Prometheus_DC2</text></switch></g><path d="M 154 60 M 154 60 C 180.55 60.98 204.34 59.81 264 60 M 154 60 C 181.82 59.4 210.44 60.05 264 60" fill="none" stroke="rgb(0, 0, 0)" stroke-linejoin="round" stroke-linecap="round" stroke-miterlimit="10"></path></g><switch><g></g><a transform="translate(0,-5)" xlink:href="https://www.diagrams.net/doc/faq/svg-export-text-problems"><text text-anchor="middle" font-size="10px" x="50%" y="100%">Text is not SVG - cannot display</text></a></switch></svg> 